<svg xmlns="http://www.w3.org/2000/svg" viewBox="0 0 320 240" width="320" height="240" role="img" aria-label="Electrobomba centrífuga">
<defs>
  <linearGradient id="pb" x1="0" y1="0" x2="0" y2="1">
    <stop offset="0" stop-color="#7FA8C9"/><stop offset="1" stop-color="#31536E"/>
  </linearGradient>
  <linearGradient id="pm" x1="0" y1="0" x2="0" y2="1">
    <stop offset="0" stop-color="#6E6E7A"/><stop offset="1" stop-color="#2A2A32"/>
  </linearGradient>
</defs>
<rect x="40" y="196" width="240" height="18" rx="3" fill="#1C1C22"/>
<rect x="52" y="188" width="216" height="10" rx="2" fill="#2E2E36"/>
<circle cx="112" cy="120" r="64" fill="url(#pb)"/>
<circle cx="112" cy="120" r="64" fill="none" stroke="#1F3A50" stroke-width="3"/>
<circle cx="112" cy="120" r="44" fill="none" stroke="#9FC4DE" stroke-width="2" opacity="0.55"/>
<circle cx="112" cy="120" r="16" fill="#28455D"/>
<path d="M112 56 v-34 h34 v34" fill="none" stroke="#31536E" stroke-width="0"/>
<rect x="96" y="18" width="34" height="44" rx="3" fill="url(#pb)" stroke="#1F3A50" stroke-width="2.5"/>
<rect x="88" y="10" width="50" height="12" rx="2" fill="#5C87A8" stroke="#1F3A50" stroke-width="2"/>
<rect x="168" y="90" width="18" height="60" fill="url(#pm)"/>
<rect x="186" y="76" width="94" height="88" rx="8" fill="url(#pm)" stroke="#15151A" stroke-width="2"/>
<rect x="194" y="82" width="4" height="76" rx="2" fill="#15151A" opacity="0.45"/><rect x="204" y="82" width="4" height="76" rx="2" fill="#15151A" opacity="0.45"/><rect x="214" y="82" width="4" height="76" rx="2" fill="#15151A" opacity="0.45"/><rect x="224" y="82" width="4" height="76" rx="2" fill="#15151A" opacity="0.45"/><rect x="234" y="82" width="4" height="76" rx="2" fill="#15151A" opacity="0.45"/><rect x="244" y="82" width="4" height="76" rx="2" fill="#15151A" opacity="0.45"/><rect x="254" y="82" width="4" height="76" rx="2" fill="#15151A" opacity="0.45"/><rect x="264" y="82" width="4" height="76" rx="2" fill="#15151A" opacity="0.45"/><rect x="274" y="82" width="4" height="76" rx="2" fill="#15151A" opacity="0.45"/>
<rect x="212" y="52" width="46" height="26" rx="3" fill="#3A3A42" stroke="#15151A" stroke-width="2"/>
<circle cx="112" cy="120" r="6" fill="#FFD400" opacity="0.9"/>
</svg>