<svg xmlns="http://www.w3.org/2000/svg" viewBox="0 0 520 520" width="520" height="520" role="img" aria-label="Estátor de motor eléctrico rebobinado">
<defs>
  <radialGradient id="core" cx="50%" cy="42%" r="62%">
    <stop offset="0" stop-color="#5A5A66"/><stop offset="0.55" stop-color="#33333B"/><stop offset="1" stop-color="#17171C"/>
  </radialGradient>
  <linearGradient id="cu" x1="0" y1="0" x2="0" y2="1">
    <stop offset="0" stop-color="#E8A55E"/><stop offset="1" stop-color="#C87B3A"/>
  </linearGradient>
  <linearGradient id="rim" x1="0" y1="0" x2="1" y2="1">
    <stop offset="0" stop-color="#8A8A96"/><stop offset="0.5" stop-color="#42424C"/><stop offset="1" stop-color="#1E1E24"/>
  </linearGradient>
  <filter id="soft"><feGaussianBlur stdDeviation="6"/></filter>
</defs>
<rect x="257" y="8" width="6" height="26" rx="2" fill="#3A3A42" transform="rotate(0.0 260 260)" opacity="0.9"/>
<rect x="257" y="8" width="6" height="26" rx="2" fill="#3A3A42" transform="rotate(7.5 260 260)" opacity="0.9"/>
<rect x="257" y="8" width="6" height="26" rx="2" fill="#3A3A42" transform="rotate(15.0 260 260)" opacity="0.9"/>
<rect x="257" y="8" width="6" height="26" rx="2" fill="#3A3A42" transform="rotate(22.5 260 260)" opacity="0.9"/>
<rect x="257" y="8" width="6" height="26" rx="2" fill="#3A3A42" transform="rotate(30.0 260 260)" opacity="0.9"/>
<rect x="257" y="8" width="6" height="26" rx="2" fill="#3A3A42" transform="rotate(37.5 260 260)" opacity="0.9"/>
<rect x="257" y="8" width="6" height="26" rx="2" fill="#3A3A42" transform="rotate(45.0 260 260)" opacity="0.9"/>
<rect x="257" y="8" width="6" height="26" rx="2" fill="#3A3A42" transform="rotate(52.5 260 260)" opacity="0.9"/>
<rect x="257" y="8" width="6" height="26" rx="2" fill="#3A3A42" transform="rotate(60.0 260 260)" opacity="0.9"/>
<rect x="257" y="8" width="6" height="26" rx="2" fill="#3A3A42" transform="rotate(67.5 260 260)" opacity="0.9"/>
<rect x="257" y="8" width="6" height="26" rx="2" fill="#3A3A42" transform="rotate(75.0 260 260)" opacity="0.9"/>
<rect x="257" y="8" width="6" height="26" rx="2" fill="#3A3A42" transform="rotate(82.5 260 260)" opacity="0.9"/>
<rect x="257" y="8" width="6" height="26" rx="2" fill="#3A3A42" transform="rotate(90.0 260 260)" opacity="0.9"/>
<rect x="257" y="8" width="6" height="26" rx="2" fill="#3A3A42" transform="rotate(97.5 260 260)" opacity="0.9"/>
<rect x="257" y="8" width="6" height="26" rx="2" fill="#3A3A42" transform="rotate(105.0 260 260)" opacity="0.9"/>
<rect x="257" y="8" width="6" height="26" rx="2" fill="#3A3A42" transform="rotate(112.5 260 260)" opacity="0.9"/>
<rect x="257" y="8" width="6" height="26" rx="2" fill="#3A3A42" transform="rotate(120.0 260 260)" opacity="0.9"/>
<rect x="257" y="8" width="6" height="26" rx="2" fill="#3A3A42" transform="rotate(127.5 260 260)" opacity="0.9"/>
<rect x="257" y="8" width="6" height="26" rx="2" fill="#3A3A42" transform="rotate(135.0 260 260)" opacity="0.9"/>
<rect x="257" y="8" width="6" height="26" rx="2" fill="#3A3A42" transform="rotate(142.5 260 260)" opacity="0.9"/>
<rect x="257" y="8" width="6" height="26" rx="2" fill="#3A3A42" transform="rotate(150.0 260 260)" opacity="0.9"/>
<rect x="257" y="8" width="6" height="26" rx="2" fill="#3A3A42" transform="rotate(157.5 260 260)" opacity="0.9"/>
<rect x="257" y="8" width="6" height="26" rx="2" fill="#3A3A42" transform="rotate(165.0 260 260)" opacity="0.9"/>
<rect x="257" y="8" width="6" height="26" rx="2" fill="#3A3A42" transform="rotate(172.5 260 260)" opacity="0.9"/>
<rect x="257" y="8" width="6" height="26" rx="2" fill="#3A3A42" transform="rotate(180.0 260 260)" opacity="0.9"/>
<rect x="257" y="8" width="6" height="26" rx="2" fill="#3A3A42" transform="rotate(187.5 260 260)" opacity="0.9"/>
<rect x="257" y="8" width="6" height="26" rx="2" fill="#3A3A42" transform="rotate(195.0 260 260)" opacity="0.9"/>
<rect x="257" y="8" width="6" height="26" rx="2" fill="#3A3A42" transform="rotate(202.5 260 260)" opacity="0.9"/>
<rect x="257" y="8" width="6" height="26" rx="2" fill="#3A3A42" transform="rotate(210.0 260 260)" opacity="0.9"/>
<rect x="257" y="8" width="6" height="26" rx="2" fill="#3A3A42" transform="rotate(217.5 260 260)" opacity="0.9"/>
<rect x="257" y="8" width="6" height="26" rx="2" fill="#3A3A42" transform="rotate(225.0 260 260)" opacity="0.9"/>
<rect x="257" y="8" width="6" height="26" rx="2" fill="#3A3A42" transform="rotate(232.5 260 260)" opacity="0.9"/>
<rect x="257" y="8" width="6" height="26" rx="2" fill="#3A3A42" transform="rotate(240.0 260 260)" opacity="0.9"/>
<rect x="257" y="8" width="6" height="26" rx="2" fill="#3A3A42" transform="rotate(247.5 260 260)" opacity="0.9"/>
<rect x="257" y="8" width="6" height="26" rx="2" fill="#3A3A42" transform="rotate(255.0 260 260)" opacity="0.9"/>
<rect x="257" y="8" width="6" height="26" rx="2" fill="#3A3A42" transform="rotate(262.5 260 260)" opacity="0.9"/>
<rect x="257" y="8" width="6" height="26" rx="2" fill="#3A3A42" transform="rotate(270.0 260 260)" opacity="0.9"/>
<rect x="257" y="8" width="6" height="26" rx="2" fill="#3A3A42" transform="rotate(277.5 260 260)" opacity="0.9"/>
<rect x="257" y="8" width="6" height="26" rx="2" fill="#3A3A42" transform="rotate(285.0 260 260)" opacity="0.9"/>
<rect x="257" y="8" width="6" height="26" rx="2" fill="#3A3A42" transform="rotate(292.5 260 260)" opacity="0.9"/>
<rect x="257" y="8" width="6" height="26" rx="2" fill="#3A3A42" transform="rotate(300.0 260 260)" opacity="0.9"/>
<rect x="257" y="8" width="6" height="26" rx="2" fill="#3A3A42" transform="rotate(307.5 260 260)" opacity="0.9"/>
<rect x="257" y="8" width="6" height="26" rx="2" fill="#3A3A42" transform="rotate(315.0 260 260)" opacity="0.9"/>
<rect x="257" y="8" width="6" height="26" rx="2" fill="#3A3A42" transform="rotate(322.5 260 260)" opacity="0.9"/>
<rect x="257" y="8" width="6" height="26" rx="2" fill="#3A3A42" transform="rotate(330.0 260 260)" opacity="0.9"/>
<rect x="257" y="8" width="6" height="26" rx="2" fill="#3A3A42" transform="rotate(337.5 260 260)" opacity="0.9"/>
<rect x="257" y="8" width="6" height="26" rx="2" fill="#3A3A42" transform="rotate(345.0 260 260)" opacity="0.9"/>
<rect x="257" y="8" width="6" height="26" rx="2" fill="#3A3A42" transform="rotate(352.5 260 260)" opacity="0.9"/>
<circle cx="260" cy="260" r="228" fill="url(#rim)"/>
<circle cx="260" cy="260" r="228" fill="none" stroke="#6E6E7A" stroke-width="2" opacity="0.6"/>
<circle cx="260" cy="260" r="196" fill="url(#core)"/>
<circle cx="260" cy="260" r="150" fill="none" stroke="#000" stroke-width="1" opacity="0.25"/>
<circle cx="260" cy="260" r="156" fill="none" stroke="#000" stroke-width="1" opacity="0.25"/>
<circle cx="260" cy="260" r="162" fill="none" stroke="#000" stroke-width="1" opacity="0.25"/>
<circle cx="260" cy="260" r="168" fill="none" stroke="#000" stroke-width="1" opacity="0.25"/>
<circle cx="260" cy="260" r="174" fill="none" stroke="#000" stroke-width="1" opacity="0.25"/>
<circle cx="260" cy="260" r="180" fill="none" stroke="#000" stroke-width="1" opacity="0.25"/>
<circle cx="260" cy="260" r="186" fill="none" stroke="#000" stroke-width="1" opacity="0.25"/>
<circle cx="260" cy="260" r="192" fill="none" stroke="#000" stroke-width="1" opacity="0.25"/>
<g transform="rotate(0.0 260 260)"><path d="M240 114 L280 114 L275 164 L245 164 Z" fill="url(#cu)"/><path d="M240 114 L280 114 L275 164 L245 164 Z" fill="none" stroke="#7A4418" stroke-width="1.2" opacity="0.7"/><line x1="251" y1="118" x2="253" y2="160" stroke="#E8A55E" stroke-width="1.4" opacity="0.75"/><line x1="260" y1="118" x2="260" y2="160" stroke="#E8A55E" stroke-width="1.4" opacity="0.6"/><line x1="269" y1="118" x2="267" y2="160" stroke="#E8A55E" stroke-width="1.4" opacity="0.75"/></g>
<path d="M254 110 L266 110 L265 168 L255 168 Z" fill="#4A4A54" transform="rotate(7.5 260 260)"/>
<g transform="rotate(15.0 260 260)"><path d="M240 114 L280 114 L275 164 L245 164 Z" fill="url(#cu)"/><path d="M240 114 L280 114 L275 164 L245 164 Z" fill="none" stroke="#7A4418" stroke-width="1.2" opacity="0.7"/><line x1="251" y1="118" x2="253" y2="160" stroke="#E8A55E" stroke-width="1.4" opacity="0.75"/><line x1="260" y1="118" x2="260" y2="160" stroke="#E8A55E" stroke-width="1.4" opacity="0.6"/><line x1="269" y1="118" x2="267" y2="160" stroke="#E8A55E" stroke-width="1.4" opacity="0.75"/></g>
<path d="M254 110 L266 110 L265 168 L255 168 Z" fill="#4A4A54" transform="rotate(22.5 260 260)"/>
<g transform="rotate(30.0 260 260)"><path d="M240 114 L280 114 L275 164 L245 164 Z" fill="url(#cu)"/><path d="M240 114 L280 114 L275 164 L245 164 Z" fill="none" stroke="#7A4418" stroke-width="1.2" opacity="0.7"/><line x1="251" y1="118" x2="253" y2="160" stroke="#E8A55E" stroke-width="1.4" opacity="0.75"/><line x1="260" y1="118" x2="260" y2="160" stroke="#E8A55E" stroke-width="1.4" opacity="0.6"/><line x1="269" y1="118" x2="267" y2="160" stroke="#E8A55E" stroke-width="1.4" opacity="0.75"/></g>
<path d="M254 110 L266 110 L265 168 L255 168 Z" fill="#4A4A54" transform="rotate(37.5 260 260)"/>
<g transform="rotate(45.0 260 260)"><path d="M240 114 L280 114 L275 164 L245 164 Z" fill="url(#cu)"/><path d="M240 114 L280 114 L275 164 L245 164 Z" fill="none" stroke="#7A4418" stroke-width="1.2" opacity="0.7"/><line x1="251" y1="118" x2="253" y2="160" stroke="#E8A55E" stroke-width="1.4" opacity="0.75"/><line x1="260" y1="118" x2="260" y2="160" stroke="#E8A55E" stroke-width="1.4" opacity="0.6"/><line x1="269" y1="118" x2="267" y2="160" stroke="#E8A55E" stroke-width="1.4" opacity="0.75"/></g>
<path d="M254 110 L266 110 L265 168 L255 168 Z" fill="#4A4A54" transform="rotate(52.5 260 260)"/>
<g transform="rotate(60.0 260 260)"><path d="M240 114 L280 114 L275 164 L245 164 Z" fill="url(#cu)"/><path d="M240 114 L280 114 L275 164 L245 164 Z" fill="none" stroke="#7A4418" stroke-width="1.2" opacity="0.7"/><line x1="251" y1="118" x2="253" y2="160" stroke="#E8A55E" stroke-width="1.4" opacity="0.75"/><line x1="260" y1="118" x2="260" y2="160" stroke="#E8A55E" stroke-width="1.4" opacity="0.6"/><line x1="269" y1="118" x2="267" y2="160" stroke="#E8A55E" stroke-width="1.4" opacity="0.75"/></g>
<path d="M254 110 L266 110 L265 168 L255 168 Z" fill="#4A4A54" transform="rotate(67.5 260 260)"/>
<g transform="rotate(75.0 260 260)"><path d="M240 114 L280 114 L275 164 L245 164 Z" fill="url(#cu)"/><path d="M240 114 L280 114 L275 164 L245 164 Z" fill="none" stroke="#7A4418" stroke-width="1.2" opacity="0.7"/><line x1="251" y1="118" x2="253" y2="160" stroke="#E8A55E" stroke-width="1.4" opacity="0.75"/><line x1="260" y1="118" x2="260" y2="160" stroke="#E8A55E" stroke-width="1.4" opacity="0.6"/><line x1="269" y1="118" x2="267" y2="160" stroke="#E8A55E" stroke-width="1.4" opacity="0.75"/></g>
<path d="M254 110 L266 110 L265 168 L255 168 Z" fill="#4A4A54" transform="rotate(82.5 260 260)"/>
<g transform="rotate(90.0 260 260)"><path d="M240 114 L280 114 L275 164 L245 164 Z" fill="url(#cu)"/><path d="M240 114 L280 114 L275 164 L245 164 Z" fill="none" stroke="#7A4418" stroke-width="1.2" opacity="0.7"/><line x1="251" y1="118" x2="253" y2="160" stroke="#E8A55E" stroke-width="1.4" opacity="0.75"/><line x1="260" y1="118" x2="260" y2="160" stroke="#E8A55E" stroke-width="1.4" opacity="0.6"/><line x1="269" y1="118" x2="267" y2="160" stroke="#E8A55E" stroke-width="1.4" opacity="0.75"/></g>
<path d="M254 110 L266 110 L265 168 L255 168 Z" fill="#4A4A54" transform="rotate(97.5 260 260)"/>
<g transform="rotate(105.0 260 260)"><path d="M240 114 L280 114 L275 164 L245 164 Z" fill="url(#cu)"/><path d="M240 114 L280 114 L275 164 L245 164 Z" fill="none" stroke="#7A4418" stroke-width="1.2" opacity="0.7"/><line x1="251" y1="118" x2="253" y2="160" stroke="#E8A55E" stroke-width="1.4" opacity="0.75"/><line x1="260" y1="118" x2="260" y2="160" stroke="#E8A55E" stroke-width="1.4" opacity="0.6"/><line x1="269" y1="118" x2="267" y2="160" stroke="#E8A55E" stroke-width="1.4" opacity="0.75"/></g>
<path d="M254 110 L266 110 L265 168 L255 168 Z" fill="#4A4A54" transform="rotate(112.5 260 260)"/>
<g transform="rotate(120.0 260 260)"><path d="M240 114 L280 114 L275 164 L245 164 Z" fill="url(#cu)"/><path d="M240 114 L280 114 L275 164 L245 164 Z" fill="none" stroke="#7A4418" stroke-width="1.2" opacity="0.7"/><line x1="251" y1="118" x2="253" y2="160" stroke="#E8A55E" stroke-width="1.4" opacity="0.75"/><line x1="260" y1="118" x2="260" y2="160" stroke="#E8A55E" stroke-width="1.4" opacity="0.6"/><line x1="269" y1="118" x2="267" y2="160" stroke="#E8A55E" stroke-width="1.4" opacity="0.75"/></g>
<path d="M254 110 L266 110 L265 168 L255 168 Z" fill="#4A4A54" transform="rotate(127.5 260 260)"/>
<g transform="rotate(135.0 260 260)"><path d="M240 114 L280 114 L275 164 L245 164 Z" fill="url(#cu)"/><path d="M240 114 L280 114 L275 164 L245 164 Z" fill="none" stroke="#7A4418" stroke-width="1.2" opacity="0.7"/><line x1="251" y1="118" x2="253" y2="160" stroke="#E8A55E" stroke-width="1.4" opacity="0.75"/><line x1="260" y1="118" x2="260" y2="160" stroke="#E8A55E" stroke-width="1.4" opacity="0.6"/><line x1="269" y1="118" x2="267" y2="160" stroke="#E8A55E" stroke-width="1.4" opacity="0.75"/></g>
<path d="M254 110 L266 110 L265 168 L255 168 Z" fill="#4A4A54" transform="rotate(142.5 260 260)"/>
<g transform="rotate(150.0 260 260)"><path d="M240 114 L280 114 L275 164 L245 164 Z" fill="url(#cu)"/><path d="M240 114 L280 114 L275 164 L245 164 Z" fill="none" stroke="#7A4418" stroke-width="1.2" opacity="0.7"/><line x1="251" y1="118" x2="253" y2="160" stroke="#E8A55E" stroke-width="1.4" opacity="0.75"/><line x1="260" y1="118" x2="260" y2="160" stroke="#E8A55E" stroke-width="1.4" opacity="0.6"/><line x1="269" y1="118" x2="267" y2="160" stroke="#E8A55E" stroke-width="1.4" opacity="0.75"/></g>
<path d="M254 110 L266 110 L265 168 L255 168 Z" fill="#4A4A54" transform="rotate(157.5 260 260)"/>
<g transform="rotate(165.0 260 260)"><path d="M240 114 L280 114 L275 164 L245 164 Z" fill="url(#cu)"/><path d="M240 114 L280 114 L275 164 L245 164 Z" fill="none" stroke="#7A4418" stroke-width="1.2" opacity="0.7"/><line x1="251" y1="118" x2="253" y2="160" stroke="#E8A55E" stroke-width="1.4" opacity="0.75"/><line x1="260" y1="118" x2="260" y2="160" stroke="#E8A55E" stroke-width="1.4" opacity="0.6"/><line x1="269" y1="118" x2="267" y2="160" stroke="#E8A55E" stroke-width="1.4" opacity="0.75"/></g>
<path d="M254 110 L266 110 L265 168 L255 168 Z" fill="#4A4A54" transform="rotate(172.5 260 260)"/>
<g transform="rotate(180.0 260 260)"><path d="M240 114 L280 114 L275 164 L245 164 Z" fill="url(#cu)"/><path d="M240 114 L280 114 L275 164 L245 164 Z" fill="none" stroke="#7A4418" stroke-width="1.2" opacity="0.7"/><line x1="251" y1="118" x2="253" y2="160" stroke="#E8A55E" stroke-width="1.4" opacity="0.75"/><line x1="260" y1="118" x2="260" y2="160" stroke="#E8A55E" stroke-width="1.4" opacity="0.6"/><line x1="269" y1="118" x2="267" y2="160" stroke="#E8A55E" stroke-width="1.4" opacity="0.75"/></g>
<path d="M254 110 L266 110 L265 168 L255 168 Z" fill="#4A4A54" transform="rotate(187.5 260 260)"/>
<g transform="rotate(195.0 260 260)"><path d="M240 114 L280 114 L275 164 L245 164 Z" fill="url(#cu)"/><path d="M240 114 L280 114 L275 164 L245 164 Z" fill="none" stroke="#7A4418" stroke-width="1.2" opacity="0.7"/><line x1="251" y1="118" x2="253" y2="160" stroke="#E8A55E" stroke-width="1.4" opacity="0.75"/><line x1="260" y1="118" x2="260" y2="160" stroke="#E8A55E" stroke-width="1.4" opacity="0.6"/><line x1="269" y1="118" x2="267" y2="160" stroke="#E8A55E" stroke-width="1.4" opacity="0.75"/></g>
<path d="M254 110 L266 110 L265 168 L255 168 Z" fill="#4A4A54" transform="rotate(202.5 260 260)"/>
<g transform="rotate(210.0 260 260)"><path d="M240 114 L280 114 L275 164 L245 164 Z" fill="url(#cu)"/><path d="M240 114 L280 114 L275 164 L245 164 Z" fill="none" stroke="#7A4418" stroke-width="1.2" opacity="0.7"/><line x1="251" y1="118" x2="253" y2="160" stroke="#E8A55E" stroke-width="1.4" opacity="0.75"/><line x1="260" y1="118" x2="260" y2="160" stroke="#E8A55E" stroke-width="1.4" opacity="0.6"/><line x1="269" y1="118" x2="267" y2="160" stroke="#E8A55E" stroke-width="1.4" opacity="0.75"/></g>
<path d="M254 110 L266 110 L265 168 L255 168 Z" fill="#4A4A54" transform="rotate(217.5 260 260)"/>
<g transform="rotate(225.0 260 260)"><path d="M240 114 L280 114 L275 164 L245 164 Z" fill="url(#cu)"/><path d="M240 114 L280 114 L275 164 L245 164 Z" fill="none" stroke="#7A4418" stroke-width="1.2" opacity="0.7"/><line x1="251" y1="118" x2="253" y2="160" stroke="#E8A55E" stroke-width="1.4" opacity="0.75"/><line x1="260" y1="118" x2="260" y2="160" stroke="#E8A55E" stroke-width="1.4" opacity="0.6"/><line x1="269" y1="118" x2="267" y2="160" stroke="#E8A55E" stroke-width="1.4" opacity="0.75"/></g>
<path d="M254 110 L266 110 L265 168 L255 168 Z" fill="#4A4A54" transform="rotate(232.5 260 260)"/>
<g transform="rotate(240.0 260 260)"><path d="M240 114 L280 114 L275 164 L245 164 Z" fill="url(#cu)"/><path d="M240 114 L280 114 L275 164 L245 164 Z" fill="none" stroke="#7A4418" stroke-width="1.2" opacity="0.7"/><line x1="251" y1="118" x2="253" y2="160" stroke="#E8A55E" stroke-width="1.4" opacity="0.75"/><line x1="260" y1="118" x2="260" y2="160" stroke="#E8A55E" stroke-width="1.4" opacity="0.6"/><line x1="269" y1="118" x2="267" y2="160" stroke="#E8A55E" stroke-width="1.4" opacity="0.75"/></g>
<path d="M254 110 L266 110 L265 168 L255 168 Z" fill="#4A4A54" transform="rotate(247.5 260 260)"/>
<g transform="rotate(255.0 260 260)"><path d="M240 114 L280 114 L275 164 L245 164 Z" fill="url(#cu)"/><path d="M240 114 L280 114 L275 164 L245 164 Z" fill="none" stroke="#7A4418" stroke-width="1.2" opacity="0.7"/><line x1="251" y1="118" x2="253" y2="160" stroke="#E8A55E" stroke-width="1.4" opacity="0.75"/><line x1="260" y1="118" x2="260" y2="160" stroke="#E8A55E" stroke-width="1.4" opacity="0.6"/><line x1="269" y1="118" x2="267" y2="160" stroke="#E8A55E" stroke-width="1.4" opacity="0.75"/></g>
<path d="M254 110 L266 110 L265 168 L255 168 Z" fill="#4A4A54" transform="rotate(262.5 260 260)"/>
<g transform="rotate(270.0 260 260)"><path d="M240 114 L280 114 L275 164 L245 164 Z" fill="url(#cu)"/><path d="M240 114 L280 114 L275 164 L245 164 Z" fill="none" stroke="#7A4418" stroke-width="1.2" opacity="0.7"/><line x1="251" y1="118" x2="253" y2="160" stroke="#E8A55E" stroke-width="1.4" opacity="0.75"/><line x1="260" y1="118" x2="260" y2="160" stroke="#E8A55E" stroke-width="1.4" opacity="0.6"/><line x1="269" y1="118" x2="267" y2="160" stroke="#E8A55E" stroke-width="1.4" opacity="0.75"/></g>
<path d="M254 110 L266 110 L265 168 L255 168 Z" fill="#4A4A54" transform="rotate(277.5 260 260)"/>
<g transform="rotate(285.0 260 260)"><path d="M240 114 L280 114 L275 164 L245 164 Z" fill="url(#cu)"/><path d="M240 114 L280 114 L275 164 L245 164 Z" fill="none" stroke="#7A4418" stroke-width="1.2" opacity="0.7"/><line x1="251" y1="118" x2="253" y2="160" stroke="#E8A55E" stroke-width="1.4" opacity="0.75"/><line x1="260" y1="118" x2="260" y2="160" stroke="#E8A55E" stroke-width="1.4" opacity="0.6"/><line x1="269" y1="118" x2="267" y2="160" stroke="#E8A55E" stroke-width="1.4" opacity="0.75"/></g>
<path d="M254 110 L266 110 L265 168 L255 168 Z" fill="#4A4A54" transform="rotate(292.5 260 260)"/>
<g transform="rotate(300.0 260 260)"><path d="M240 114 L280 114 L275 164 L245 164 Z" fill="url(#cu)"/><path d="M240 114 L280 114 L275 164 L245 164 Z" fill="none" stroke="#7A4418" stroke-width="1.2" opacity="0.7"/><line x1="251" y1="118" x2="253" y2="160" stroke="#E8A55E" stroke-width="1.4" opacity="0.75"/><line x1="260" y1="118" x2="260" y2="160" stroke="#E8A55E" stroke-width="1.4" opacity="0.6"/><line x1="269" y1="118" x2="267" y2="160" stroke="#E8A55E" stroke-width="1.4" opacity="0.75"/></g>
<path d="M254 110 L266 110 L265 168 L255 168 Z" fill="#4A4A54" transform="rotate(307.5 260 260)"/>
<g transform="rotate(315.0 260 260)"><path d="M240 114 L280 114 L275 164 L245 164 Z" fill="url(#cu)"/><path d="M240 114 L280 114 L275 164 L245 164 Z" fill="none" stroke="#7A4418" stroke-width="1.2" opacity="0.7"/><line x1="251" y1="118" x2="253" y2="160" stroke="#E8A55E" stroke-width="1.4" opacity="0.75"/><line x1="260" y1="118" x2="260" y2="160" stroke="#E8A55E" stroke-width="1.4" opacity="0.6"/><line x1="269" y1="118" x2="267" y2="160" stroke="#E8A55E" stroke-width="1.4" opacity="0.75"/></g>
<path d="M254 110 L266 110 L265 168 L255 168 Z" fill="#4A4A54" transform="rotate(322.5 260 260)"/>
<g transform="rotate(330.0 260 260)"><path d="M240 114 L280 114 L275 164 L245 164 Z" fill="url(#cu)"/><path d="M240 114 L280 114 L275 164 L245 164 Z" fill="none" stroke="#7A4418" stroke-width="1.2" opacity="0.7"/><line x1="251" y1="118" x2="253" y2="160" stroke="#E8A55E" stroke-width="1.4" opacity="0.75"/><line x1="260" y1="118" x2="260" y2="160" stroke="#E8A55E" stroke-width="1.4" opacity="0.6"/><line x1="269" y1="118" x2="267" y2="160" stroke="#E8A55E" stroke-width="1.4" opacity="0.75"/></g>
<path d="M254 110 L266 110 L265 168 L255 168 Z" fill="#4A4A54" transform="rotate(337.5 260 260)"/>
<g transform="rotate(345.0 260 260)"><path d="M240 114 L280 114 L275 164 L245 164 Z" fill="url(#cu)"/><path d="M240 114 L280 114 L275 164 L245 164 Z" fill="none" stroke="#7A4418" stroke-width="1.2" opacity="0.7"/><line x1="251" y1="118" x2="253" y2="160" stroke="#E8A55E" stroke-width="1.4" opacity="0.75"/><line x1="260" y1="118" x2="260" y2="160" stroke="#E8A55E" stroke-width="1.4" opacity="0.6"/><line x1="269" y1="118" x2="267" y2="160" stroke="#E8A55E" stroke-width="1.4" opacity="0.75"/></g>
<path d="M254 110 L266 110 L265 168 L255 168 Z" fill="#4A4A54" transform="rotate(352.5 260 260)"/>
<circle cx="260" cy="260" r="94" fill="#101014"/>
<circle cx="260" cy="260" r="94" fill="none" stroke="#6E6E7A" stroke-width="2" opacity="0.5"/>
<circle cx="260" cy="260" r="70" fill="none" stroke="#FFD400" stroke-width="1.5" opacity="0.35" stroke-dasharray="4 10"/>
<circle cx="260" cy="260" r="46" fill="url(#rim)"/>
<circle cx="260" cy="260" r="30" fill="#5C5C68"/>
<circle cx="260" cy="260" r="30" fill="none" stroke="#15151A" stroke-width="3"/>
<rect x="255" y="230" width="10" height="9" fill="#15151A"/>
<circle cx="408.5" cy="408.5" r="9" fill="#0B0B0C" opacity="0.8"/>
<circle cx="408.5" cy="408.5" r="9" fill="none" stroke="#6E6E7A" stroke-width="1.5" opacity="0.6"/>
<circle cx="111.5" cy="408.5" r="9" fill="#0B0B0C" opacity="0.8"/>
<circle cx="111.5" cy="408.5" r="9" fill="none" stroke="#6E6E7A" stroke-width="1.5" opacity="0.6"/>
<circle cx="111.5" cy="111.5" r="9" fill="#0B0B0C" opacity="0.8"/>
<circle cx="111.5" cy="111.5" r="9" fill="none" stroke="#6E6E7A" stroke-width="1.5" opacity="0.6"/>
<circle cx="408.5" cy="111.5" r="9" fill="#0B0B0C" opacity="0.8"/>
<circle cx="408.5" cy="111.5" r="9" fill="none" stroke="#6E6E7A" stroke-width="1.5" opacity="0.6"/>
<g transform="translate(214 -8)"><rect width="92" height="46" rx="4" fill="#2C2C34" stroke="#6E6E7A" stroke-width="1.5"/>
<circle cx="20" cy="23" r="7" fill="#C87B3A"/><circle cx="20" cy="23" r="3" fill="#E8A55E"/>
<circle cx="46" cy="23" r="7" fill="#C87B3A"/><circle cx="46" cy="23" r="3" fill="#E8A55E"/>
<circle cx="72" cy="23" r="7" fill="#C87B3A"/><circle cx="72" cy="23" r="3" fill="#E8A55E"/>
</g>
</svg>