<svg xmlns="http://www.w3.org/2000/svg" viewBox="0 0 320 240" width="320" height="240" role="img" aria-label="Tablero eléctrico con interruptores termomagnéticos">
<rect x="24" y="20" width="272" height="200" rx="8" fill="#2A2A32" stroke="#15151A" stroke-width="3"/>
<rect x="38" y="34" width="244" height="172" rx="4" fill="#3A3A42"/>
<rect x="38" y="34" width="244" height="26" fill="#15151A"/>
<circle cx="54" cy="47" r="5" fill="#FFD400"/><circle cx="70" cy="47" r="5" fill="#4A4A54"/>
<rect x="34" y="66" width="252" height="62" rx="3" fill="#141418"/>
<g transform="translate(48 74)"><rect width="18" height="46" rx="2" fill="#E9E9E4" stroke="#15151A" stroke-width="1.5"/><rect x="4" y="24" width="10" height="12" rx="1.5" fill="#C7302A"/></g><g transform="translate(74 74)"><rect width="18" height="46" rx="2" fill="#E9E9E4" stroke="#15151A" stroke-width="1.5"/><rect x="4" y="8" width="10" height="12" rx="1.5" fill="#FFD400"/></g><g transform="translate(100 74)"><rect width="18" height="46" rx="2" fill="#E9E9E4" stroke="#15151A" stroke-width="1.5"/><rect x="4" y="8" width="10" height="12" rx="1.5" fill="#FFD400"/></g><g transform="translate(126 74)"><rect width="18" height="46" rx="2" fill="#E9E9E4" stroke="#15151A" stroke-width="1.5"/><rect x="4" y="24" width="10" height="12" rx="1.5" fill="#C7302A"/></g><g transform="translate(152 74)"><rect width="18" height="46" rx="2" fill="#E9E9E4" stroke="#15151A" stroke-width="1.5"/><rect x="4" y="8" width="10" height="12" rx="1.5" fill="#FFD400"/></g><g transform="translate(178 74)"><rect width="18" height="46" rx="2" fill="#E9E9E4" stroke="#15151A" stroke-width="1.5"/><rect x="4" y="8" width="10" height="12" rx="1.5" fill="#FFD400"/></g><g transform="translate(204 74)"><rect width="18" height="46" rx="2" fill="#E9E9E4" stroke="#15151A" stroke-width="1.5"/><rect x="4" y="24" width="10" height="12" rx="1.5" fill="#C7302A"/></g><g transform="translate(230 74)"><rect width="18" height="46" rx="2" fill="#E9E9E4" stroke="#15151A" stroke-width="1.5"/><rect x="4" y="8" width="10" height="12" rx="1.5" fill="#FFD400"/></g>
<rect x="34" y="140" width="252" height="6" fill="#15151A"/>
<line x1="50" y1="146" x2="56" y2="196" stroke="#C7302A" stroke-width="3.5" stroke-linecap="round"/><line x1="72" y1="146" x2="78" y2="196" stroke="#1F6BB8" stroke-width="3.5" stroke-linecap="round"/><line x1="94" y1="146" x2="100" y2="196" stroke="#2E9E4F" stroke-width="3.5" stroke-linecap="round"/><line x1="116" y1="146" x2="122" y2="196" stroke="#C7302A" stroke-width="3.5" stroke-linecap="round"/><line x1="138" y1="146" x2="144" y2="196" stroke="#1F6BB8" stroke-width="3.5" stroke-linecap="round"/><line x1="160" y1="146" x2="166" y2="196" stroke="#2E9E4F" stroke-width="3.5" stroke-linecap="round"/><line x1="182" y1="146" x2="188" y2="196" stroke="#C7302A" stroke-width="3.5" stroke-linecap="round"/><line x1="204" y1="146" x2="210" y2="196" stroke="#1F6BB8" stroke-width="3.5" stroke-linecap="round"/><line x1="226" y1="146" x2="232" y2="196" stroke="#2E9E4F" stroke-width="3.5" stroke-linecap="round"/><line x1="248" y1="146" x2="254" y2="196" stroke="#C7302A" stroke-width="3.5" stroke-linecap="round"/>
<rect x="24" y="20" width="272" height="200" rx="8" fill="none" stroke="#FFD400" stroke-width="1" opacity="0.25"/>
</svg>